<svg width="184" height="110" viewBox="0 0 184 110" fill="none" xmlns="http://www.w3.org/2000/svg">
<path d="M164.007 8.93889L158.008 27.2352L182.303 31.7342L161.608 47.331L174.918 54.8295L153.509 62.6279L171.552 81.7159L146.611 78.2247L155.609 93.2216L136.413 89.6224V105.819L118.117 93.2216L101.62 107.919L92.9218 89.6224L75.8253 101.62L69.8265 91.1221L46.1314 105.819V86.0231H18.8369L26.9353 72.8258L1.44048 69.8264L17.0373 54.8295L1.44048 42.2798L26.9353 39.5326L17.0373 22.7361H42.2321L51.8387 8.93889L66.2271 17.3372L77.9247 6.53938L90.2223 14.9377L108.519 1.44043L110.318 14.9377L134.013 1.44043L136.413 17.3372L164.007 8.93889Z" fill="white" stroke="black" stroke-width="2.88083" stroke-linejoin="round"/>
</svg>
