<svg width="153" height="82" viewBox="0 0 153 82" fill="none" xmlns="http://www.w3.org/2000/svg">
<path d="M8.52412 54.9435C-3.6679 47.3431 2.39656 34.8018 11.4807 31.8961C3.65314 23.0576 16.2605 16.6956 22.7153 17.8135C22.7153 7.97797 42.7938 6.1895 49.7266 11.7781C49.7266 0.600972 72.4187 -2.2017 79.6065 7.97797C96.6676 -0.802654 120.791 11.7781 113.137 21.3223C119.112 17.075 126.033 19.8552 129.142 25.4436C137.956 21.973 153.729 28.0465 146.074 39.9766C153.729 41.7119 150.497 54.7266 146.074 54.7266C152.105 62.3184 136.332 73.0264 130.522 68.3322C130.522 78.3699 114.266 80.1792 105.184 74.5912C96.8161 83.3086 79.6063 79.5086 77.6941 73.0264C70.2074 79.3185 65.7503 78.2536 57.6149 73.0264C42.6217 81.1897 15.2509 71.4287 21.2811 63.638C11.4807 65.5721 5.04477 58.1971 8.52412 54.9435Z" fill="white" stroke="black" stroke-width="3.36336" stroke-linecap="round" stroke-linejoin="round"/>
</svg>
